<?xml version="1.0" encoding="utf-8"?>
<!-- Generator: Adobe Illustrator 23.0.0, SVG Export Plug-In . SVG Version: 6.00 Build 0)  -->
<svg version="1.1" id="Layer_1" xmlns="http://www.w3.org/2000/svg" xmlns:xlink="http://www.w3.org/1999/xlink" x="0px" y="0px"
	 viewBox="0 0 432 432" style="enable-background:new 0 0 432 432;" xml:space="preserve">
<style type="text/css">
	.st0{fill:#FFFC00;}
	.st1{fill:#FFFFFF;}
	.st2{fill:#030303;}
</style>
<g>
	<path class="st0" d="M363.17,0C401.18,0,432,30.82,432,68.84v294.33c0,38.01-30.82,68.84-68.83,68.84H68.84
		C30.82,432,0,401.18,0,363.17V68.84C0,30.82,30.82,0,68.84,0H363.17z"/>
	<g>
		<g>
			<g>
				<path class="st1" d="M217.59,364.52c-0.82,0-1.62-0.02-2.42-0.06h0c-0.51,0.04-1.04,0.06-1.58,0.06
					c-18.75,0-30.78-8.51-42.42-16.73c-8.03-5.68-15.62-11.04-24.55-12.52c-4.36-0.72-8.7-1.09-12.89-1.09
					c-7.55,0-13.51,1.17-17.86,2.02c-2.64,0.52-4.92,0.96-6.66,0.96c-1.81,0-3.77-0.39-4.63-3.31c-0.74-2.52-1.28-4.97-1.79-7.33
					c-1.33-6.09-2.27-9.83-4.82-10.22c-29.74-4.59-38.25-10.86-40.14-15.3c-0.27-0.64-0.42-1.27-0.46-1.9
					c-0.1-1.71,1.11-3.21,2.8-3.49c45.71-7.53,66.21-54.25,67.06-56.23c0.02-0.05,0.05-0.11,0.07-0.16
					c2.8-5.67,3.35-10.59,1.63-14.63c-3.14-7.39-13.37-10.64-20.14-12.79c-1.66-0.52-3.23-1.02-4.47-1.51
					c-13.51-5.34-14.64-10.83-14.11-13.62c0.91-4.76,7.27-8.08,12.42-8.08c1.41,0,2.65,0.25,3.7,0.74
					c6.08,2.85,11.56,4.29,16.29,4.29c6.53,0,9.38-2.75,9.73-3.11c-0.17-3.09-0.37-6.32-0.58-9.66
					c-1.36-21.61-3.05-48.46,3.79-63.79c20.49-45.95,63.95-49.52,76.78-49.52c0.33,0,5.62-0.06,5.62-0.06l0.76,0
					c12.86,0,56.41,3.58,76.91,49.55c6.84,15.34,5.15,42.21,3.78,63.81l-0.06,0.94c-0.19,3.01-0.37,5.93-0.52,8.73
					c0.33,0.33,2.95,2.86,8.87,3.09h0.01c4.5-0.17,9.67-1.61,15.35-4.27c1.66-0.78,3.51-0.94,4.77-0.94c1.92,0,3.87,0.37,5.49,1.05
					l0.1,0.04c4.59,1.63,7.6,4.85,7.66,8.21c0.06,3.17-2.36,7.93-14.22,12.61c-1.23,0.48-2.8,0.98-4.46,1.51
					c-6.78,2.15-17.01,5.4-20.14,12.79c-1.71,4.03-1.16,8.95,1.63,14.62c0.02,0.05,0.05,0.11,0.07,0.17
					c0.85,1.98,21.33,48.69,67.06,56.22c1.69,0.28,2.89,1.78,2.8,3.49c-0.04,0.64-0.19,1.29-0.47,1.91
					c-1.89,4.41-10.39,10.67-40.14,15.26c-2.43,0.37-3.37,3.54-4.82,10.18c-0.53,2.42-1.06,4.79-1.8,7.29
					c-0.63,2.17-1.98,3.18-4.25,3.18h-0.37c-1.58,0-3.82-0.28-6.66-0.84c-5.04-0.99-10.68-1.89-17.87-1.89
					c-4.2,0-8.54,0.37-12.9,1.09c-8.92,1.49-16.5,6.84-24.52,12.51C248.37,356.02,236.34,364.52,217.59,364.52z"/>
				<path class="st2" d="M218.71,70.83c12.17,0,54.1,3.27,73.85,47.56c6.5,14.58,4.84,41,3.5,62.23c-0.21,3.37-0.42,6.63-0.59,9.75
					l-0.07,1.34l0.9,1c0.36,0.4,3.74,3.94,11.26,4.23l0.13,0l0.12,0c4.97-0.19,10.57-1.73,16.66-4.58c0.89-0.42,2.08-0.62,3.35-0.62
					c1.44,0,2.97,0.27,4.23,0.8l0.19,0.08c3.19,1.12,5.44,3.23,5.48,5.13c0.02,1.08-0.79,4.96-12.1,9.43
					c-1.1,0.44-2.56,0.9-4.25,1.43c-7.36,2.34-18.47,5.86-22.21,14.67c-2.11,4.97-1.53,10.83,1.71,17.42
					c1.34,3.12,22.33,50.43,69.6,58.21c-0.01,0.22-0.07,0.47-0.19,0.76c-0.8,1.89-5.9,8.4-37.57,13.29
					c-4.96,0.76-6.18,6.32-7.59,12.78c-0.5,2.31-1.02,4.64-1.74,7.06c-0.21,0.73-0.26,0.77-1.04,0.77c-0.11,0-0.23,0-0.37,0l0,0
					c-1.4,0-3.54-0.29-6.01-0.78c-4.49-0.88-10.65-1.95-18.51-1.95c-4.39,0-8.91,0.38-13.44,1.13c-9.69,1.61-17.58,7.19-25.93,13.09
					c-11.21,7.93-22.8,16.12-40.49,16.12c-0.77,0-1.52-0.02-2.28-0.06l-0.2-0.01l-0.2,0.02c-0.43,0.04-0.87,0.05-1.32,0.05
					c-17.68,0-29.28-8.19-40.49-16.12c-8.35-5.9-16.24-11.48-25.93-13.1c-4.53-0.75-9.06-1.13-13.44-1.13
					c-7.86,0-14.02,1.2-18.51,2.08c-2.47,0.49-4.61,0.9-6.01,0.9c-1.15,0-1.17-0.07-1.41-0.89c-0.71-2.42-1.23-4.81-1.74-7.12
					c-1.41-6.46-2.63-12.05-7.59-12.81c-31.68-4.89-36.77-11.42-37.58-13.3c-0.13-0.29-0.18-0.55-0.19-0.77
					c47.26-7.79,68.26-55.09,69.59-58.22c3.25-6.59,3.82-12.45,1.71-17.41c-3.74-8.81-14.86-12.34-22.21-14.68
					c-1.69-0.53-3.14-0.99-4.25-1.43c-9.55-3.77-12.49-7.57-12.05-9.88c0.51-2.66,5.11-5.36,9.12-5.36c0.9,0,1.69,0.14,2.28,0.42
					c6.53,3.05,12.49,4.61,17.71,4.61c8.22,0,11.87-3.82,12.26-4.26l0.89-1l-0.07-1.33c-0.17-3.12-0.37-6.38-0.59-9.74
					c-1.34-21.23-3-47.63,3.5-62.22c19.68-44.13,61.4-47.53,73.72-47.53c0.3,0,5.66-0.05,5.66-0.05
					C218.22,70.83,218.46,70.83,218.71,70.83 M218.71,64.13h-0.01c-0.28,0-0.54,0-0.79,0.01l0,0c0,0-5.18,0.05-5.59,0.05
					c-13.33,0-58.51,3.71-79.83,51.51c-7.17,16.08-5.45,43.39-4.07,65.33c0.16,2.59,0.34,5.27,0.48,7.87
					c-1.1,0.61-3.12,1.37-6.29,1.37c-4.23,0-9.23-1.34-14.86-3.97c-1.49-0.7-3.22-1.05-5.12-1.05c-6.59,0-14.48,4.34-15.71,10.8
					c-0.89,4.66,1.2,11.45,16.17,17.36c1.35,0.53,2.97,1.05,4.69,1.59c6.18,1.96,15.53,4.93,18.07,10.9
					c1.31,3.1,0.79,7.08-1.55,11.84c-0.05,0.11-0.1,0.21-0.15,0.33c-0.82,1.91-20.6,47.01-64.52,54.24
					c-3.38,0.56-5.79,3.57-5.6,6.99c0.06,1.02,0.3,2.03,0.71,3.01c3.3,7.71,17.2,13.35,42.52,17.28c0.85,1.14,1.73,5.19,2.26,7.65
					c0.53,2.43,1.07,4.94,1.85,7.58c0.76,2.6,2.75,5.71,7.84,5.71c2.06,0,4.49-0.47,7.3-1.03c4.22-0.82,9.99-1.95,17.22-1.95
					c4.01,0,8.17,0.35,12.35,1.04c8.17,1.36,15.11,6.27,23.15,11.95c11.51,8.14,24.55,17.35,44.36,17.35c0.54,0,1.09-0.02,1.63-0.06
					c0.64,0.03,1.48,0.06,2.37,0.06c19.82,0,32.85-9.22,44.36-17.35c8.05-5.69,14.99-10.59,23.16-11.95
					c4.18-0.69,8.33-1.04,12.35-1.04c6.9,0,12.36,0.88,17.22,1.83c3.05,0.6,5.51,0.9,7.3,0.9l0.19,0h0.18c3.76,0,6.42-1.99,7.47-5.6
					c0.76-2.59,1.31-5.03,1.85-7.5c0.54-2.46,1.41-6.48,2.26-7.62c25.32-3.93,39.23-9.57,42.52-17.24c0.42-0.98,0.67-2,0.72-3.03
					c0.19-3.42-2.22-6.43-5.6-6.98c-43.94-7.24-63.71-52.33-64.53-54.24c-0.05-0.11-0.1-0.22-0.15-0.33
					c-2.35-4.76-2.86-8.74-1.55-11.83c2.53-5.97,11.88-8.94,18.06-10.9c1.73-0.55,3.36-1.07,4.69-1.59
					c10.95-4.33,16.45-9.64,16.33-15.79c-0.09-4.83-3.86-9.14-9.84-11.28l-0.02-0.01c-2.01-0.83-4.4-1.29-6.74-1.29
					c-1.6,0-3.97,0.22-6.19,1.25c-5.21,2.44-9.89,3.77-13.93,3.95c-2.68-0.12-4.43-0.8-5.43-1.35c0.13-2.23,0.27-4.52,0.42-6.91
					l0.06-0.93c1.39-21.96,3.11-49.29-4.07-65.38C277.36,67.85,232.08,64.13,218.71,64.13L218.71,64.13z"/>
			</g>
		</g>
	</g>
</g>
</svg>
